HIERARCHY
ROOT Hips
{
 OFFSET 0.000000 0.000000 0.000000
 CHANNELS 6 Xposition Yposition Zposition Yrotation Xrotation Zrotation
 JOINT Chest
 {
  OFFSET 0.000000 9.585900 0.002600
  CHANNELS 3 Yrotation Xrotation Zrotation
  JOINT Chest2
  {
   OFFSET 0.000000 9.601200 -0.005300
   CHANNELS 3 Yrotation Xrotation Zrotation
   JOINT Chest3
   {
    OFFSET 0.000000 9.561800 0.000000
    CHANNELS 3 Yrotation Xrotation Zrotation
    JOINT Chest4
    {
     OFFSET 0.000000 9.552100 0.000000
     CHANNELS 3 Yrotation Xrotation Zrotation
     JOINT Neck
     {
      OFFSET 0.000000 14.453000 0.000000
      CHANNELS 3 Yrotation Xrotation Zrotation
      JOINT Head
      {
       OFFSET 0.000000 8.936500 -0.011300
       CHANNELS 3 Yrotation Xrotation Zrotation
       End Site
       {
        OFFSET 0.000000 17.073600 -0.006000
       }
      }
     }
     JOINT RightCollar
     {
      OFFSET -2.921100 9.558500 0.000000
      CHANNELS 3 Yrotation Xrotation Zrotation
      JOINT RightShoulder
      {
       OFFSET -13.519700 0.000000 0.000000
       CHANNELS 3 Yrotation Xrotation Zrotation
       JOINT RightElbow
       {
        OFFSET 0.000000 -29.696600 0.000000
        CHANNELS 3 Yrotation Xrotation Zrotation
        JOINT RightWrist
        {
         OFFSET 0.000000 -24.004700 0.000000
         CHANNELS 3 Yrotation Xrotation Zrotation
         End Site
         {
          OFFSET 0.000000 -17.728500 0.000000
         }
        }
       }
      }
     }
     JOINT LeftCollar
     {
      OFFSET 2.921100 9.558500 0.000000
      CHANNELS 3 Yrotation Xrotation Zrotation
      JOINT LeftShoulder
      {
       OFFSET 13.519700 0.000000 0.000000
       CHANNELS 3 Yrotation Xrotation Zrotation
       JOINT LeftElbow
       {
        OFFSET 0.000000 -29.696600 0.000000
        CHANNELS 3 Yrotation Xrotation Zrotation
        JOINT LeftWrist
        {
         OFFSET 0.000000 -24.004700 0.000000
         CHANNELS 3 Yrotation Xrotation Zrotation
         End Site
         {
          OFFSET 0.000000 -17.728500 0.000000
         }
        }
       }
      }
     }
    }
   }
  }
 }
 JOINT RightHip
 {
  OFFSET -7.771700 -0.012900 -0.001300
  CHANNELS 3 Yrotation Xrotation Zrotation
  JOINT RightKnee
  {
   OFFSET 0.000000 -40.869800 0.001200
   CHANNELS 3 Yrotation Xrotation Zrotation
   JOINT RightAnkle
   {
    OFFSET 0.000000 -39.717900 0.002100
    CHANNELS 3 Yrotation Xrotation Zrotation
    JOINT RightToe
    {
     OFFSET 0.000000 -4.965400 11.033500
     CHANNELS 3 Yrotation Xrotation Zrotation
     End Site
     {
      OFFSET 0.000000 -1.423100 5.872300
     }
    }
   }
  }
 }
 JOINT LeftHip
 {
  OFFSET 7.771700 -0.012900 -0.001300
  CHANNELS 3 Yrotation Xrotation Zrotation
  JOINT LeftKnee
  {
   OFFSET 0.000000 -40.869800 0.001200
   CHANNELS 3 Yrotation Xrotation Zrotation
   JOINT LeftAnkle
   {
    OFFSET 0.000000 -39.717900 0.002100
    CHANNELS 3 Yrotation Xrotation Zrotation
    JOINT LeftToe
    {
     OFFSET 0.000000 -4.965400 11.033500
     CHANNELS 3 Yrotation Xrotation Zrotation
     End Site
     {
      OFFSET 0.000000 -1.423100 5.872300
     }
    }
   }
  }
 }
}
MOTION
Frames: 8
Frame Time: 0.008333
-56.936584 43.775061 20.063636 172.818342 -18.083340 0.554280 0.534099 17.228888 2.783582 0.005873 1.851201 0.346614 0.018897 3.068481 0.578817 0.381511 15.109447 2.893077 -1.967600 11.690035 -5.845982 -0.762114 -13.336159 -5.864012 5.339709 1.613116 -9.009554 1.073198 -11.252461 -0.946300 -85.777702 -84.028610 100.486930 -8.435381 5.473028 -52.054784 -8.581594 -0.333186 -1.535531 12.141971 -7.962802 -1.987825 110.479597 -70.923609 -134.746047 21.634063 12.031404 47.306033 2.420038 -73.594385 8.698964 -146.314086 64.578440 -144.429879 -10.392400 -27.523039 7.816006 0.146434 -0.775864 0.062303 4.342590 -60.568635 -2.478895 173.968295 60.777380 174.425199 0.582310 -40.424960 0.384477 0.140124 0.281941 0.078660
-56.937017 43.772617 20.064192 172.819740 -18.092257 0.547538 0.540855 17.209260 2.799595 0.002143 1.865415 0.341036 0.015977 3.078999 0.577697 0.395297 15.088195 2.908010 -1.976703 11.694518 -5.842740 -0.765182 -13.324781 -5.873217 5.334323 1.636846 -9.013460 1.046384 -11.257077 -0.929996 -86.565879 -83.857070 101.278201 -8.454110 5.357388 -51.837808 -8.587372 -0.312057 -1.551668 12.173032 -7.967043 -2.002077 110.451456 -70.921380 -134.757543 21.648874 11.989001 47.273042 2.381260 -73.583713 8.731062 -146.295562 64.575392 -144.416589 -10.371736 -27.534876 7.809181 0.146811 -0.772362 0.064235 4.340562 -60.563630 -2.466800 173.981316 60.773880 174.439255 0.583361 -40.427154 0.387842 0.138645 0.283579 0.075536
-56.937615 43.770419 20.064597 172.822380 -18.102553 0.543405 0.541147 17.204385 2.809661 0.004643 1.867237 0.341348 0.016229 3.079459 0.578151 0.391653 15.095091 2.906469 -1.969547 11.679115 -5.825666 -0.770399 -13.330398 -5.867597 5.354301 1.637389 -9.004474 0.996922 -11.250806 -0.919314 -87.354379 -83.664203 102.081007 -8.475623 5.212236 -51.620699 -8.582676 -0.307296 -1.557810 12.202177 -7.970137 -2.015203 110.521695 -70.811412 -134.849285 21.665697 11.982309 47.207734 2.351088 -73.571571 8.755749 -146.264221 64.571249 -144.386604 -10.376094 -27.539052 7.806092 0.143900 -0.781564 0.067924 4.340608 -60.556162 -2.454823 173.989277 60.771594 174.445787 0.573470 -40.430704 0.397152 0.137878 0.286263 0.073408
-56.938040 43.769182 20.062940 172.818684 -18.126817 0.543559 0.548946 17.212072 2.817592 0.000001 1.869199 0.342713 0.022004 3.069814 0.583538 0.385369 15.113569 2.899594 -1.964233 11.669770 -5.812676 -0.771625 -13.353763 -5.830870 5.353883 1.642319 -9.006841 0.948785 -11.248372 -0.888332 -88.138392 -83.472274 102.896198 -8.499058 5.048401 -51.412015 -8.540505 -0.315715 -1.561762 12.197576 -7.960123 -2.028638 110.546013 -70.727128 -134.896343 21.666763 12.001574 47.183194 2.342331 -73.546260 8.767305 -146.238503 64.566056 -144.363579 -10.375458 -27.536035 7.806688 0.150553 -0.785063 0.070217 4.354052 -60.531731 -2.447723 173.997616 60.768969 174.454690 0.560663 -40.432401 0.406528 0.140138 0.284246 0.073553
-56.938390 43.767353 20.063925 172.821478 -18.136048 0.540644 0.549975 17.212582 2.823298 0.002574 1.862213 0.345779 0.017273 3.081702 0.579696 0.393655 15.105024 2.908132 -1.966305 11.667428 -5.802149 -0.776709 -13.352117 -5.819092 5.356003 1.649561 -9.006488 0.863297 -11.233834 -0.827670 -88.933937 -83.315511 103.751205 -8.522889 4.876264 -51.215211 -8.526129 -0.309741 -1.570308 12.216762 -7.961321 -2.042029 110.515996 -70.697123 -134.901068 21.699760 11.970710 47.154876 2.307834 -73.537602 8.794227 -146.217002 64.563121 -144.348549 -10.363096 -27.528971 7.800572 0.151748 -0.791252 0.072180 4.361701 -60.526632 -2.441141 174.009624 60.767096 174.465366 0.559868 -40.430178 0.404194 0.132307 0.283013 0.082175
-56.939267 43.765561 20.065425 172.820398 -18.143134 0.542333 0.554148 17.210646 2.825566 0.006553 1.853114 0.348918 0.016977 3.081452 0.580362 0.404318 15.093069 2.921288 -1.978148 11.684265 -5.798454 -0.782380 -13.349182 -5.807359 5.355993 1.673357 -9.007604 0.807610 -11.217561 -0.802069 -89.764209 -83.149982 104.599655 -8.546583 4.709876 -51.023666 -8.520768 -0.285612 -1.587426 12.213278 -7.961407 -2.048635 110.535339 -70.590947 -134.930485 21.698329 11.992214 47.151260 2.292460 -73.530431 8.800261 -146.206969 64.564232 -144.343307 -10.344972 -27.522351 7.795864 0.146359 -0.795494 0.067535 4.375069 -60.522039 -2.439720 174.016310 60.766152 174.470098 0.552655 -40.430319 0.408740 0.129045 0.284191 0.085616
-56.937626 43.764501 20.065389 172.820259 -18.163315 0.529831 0.565815 17.211500 2.847632 0.006619 1.853920 0.349465 0.017316 3.082735 0.581666 0.412486 15.091412 2.928011 -1.985251 11.691465 -5.791645 -0.787846 -13.345274 -5.796034 5.343259 1.689338 -9.011857 0.760611 -11.209776 -0.770598 -90.599093 -83.001536 105.446879 -8.564776 4.560354 -50.827745 -8.514451 -0.272389 -1.599522 12.210677 -7.961117 -2.054538 110.532239 -70.527515 -134.945720 21.708070 11.994303 47.148135 2.244890 -73.511311 8.847787 -146.211645 64.568015 -144.343906 -10.346162 -27.509425 7.794335 0.164181 -0.803043 0.065545 4.366671 -60.504368 -2.410134 174.030619 60.763016 174.484837 0.546645 -40.434438 0.418265 0.125125 0.286120 0.082329
-56.937759 43.763341 20.065754 172.823175 -18.181194 0.525825 0.574888 17.212171 2.856171 0.007017 1.854290 0.350546 0.028739 3.067348 0.587558 0.399608 15.111637 2.928279 -1.982617 11.693380 -5.781740 -0.795588 -13.338856 -5.789634 5.345331 1.696387 -9.005040 0.706519 -11.201411 -0.745514 -91.429481 -82.874960 106.280779 -8.574993 4.427632 -50.627781 -8.504037 -0.268486 -1.606797 12.229436 -7.969925 -2.067144 110.469527 -70.494443 -134.918002 21.695838 12.012878 47.151494 2.229304 -73.494905 8.859031 -146.222968 64.570993 -144.352311 -10.350203 -27.505018 7.793022 0.156990 -0.803105 0.064989 4.379897 -60.488191 -2.399408 174.028154 60.760673 174.479630 0.525605 -40.437401 0.440756 0.121926 0.288893 0.072371
